<svg width="40" height="40" viewBox="0 0 40 40" fill="none" xmlns="http://www.w3.org/2000/svg">
<g clip-path="url(#clip0)">
<path d="M38.4486 14.9978C38.2361 14.7604 37.8829 14.7122 37.6145 14.8837L35.9111 15.9812V2.15267C35.8604 1.36389 35.18 0.765534 34.3912 0.816239C34.3828 0.816787 34.3743 0.817446 34.3659 0.818104H4.75086C3.96308 0.753462 3.27209 1.33964 3.20745 2.12731C3.20679 2.13577 3.20613 2.14422 3.20558 2.15267V15.4281L2.38904 14.9013C2.1117 14.7032 1.72845 14.753 1.51104 15.0154C0.514176 16.2323 -0.0206367 17.7622 0.000874362 19.3352V33.0495C0.0359944 36.0172 1.65152 39.1868 6.17323 39.1868H33.8478C36.8155 39.1868 39.9939 37.5713 39.9939 33.0408V19.3352C40.0667 17.7428 39.5119 16.1854 38.4486 14.9978ZM4.75086 2.13511H34.3834C34.5239 2.13511 34.6029 2.18779 34.6029 2.13511V16.8592L20.0105 26.3241L4.53136 16.2885L4.5138 2.21413C4.5791 2.15728 4.66438 2.12885 4.75086 2.13511ZM1.5725 34.5158C1.45386 34.036 1.39196 33.5439 1.38812 33.0495L1.36178 19.3352C1.35278 18.2825 1.63868 17.2485 2.1871 16.35L14.8128 24.5329L1.5725 34.5158ZM33.8478 37.8698L33.8391 37.861H6.17323C3.87286 37.861 2.66122 36.8864 2.03784 35.7801L15.9805 25.2705L19.6506 27.6498C19.7378 27.6938 19.8338 27.7178 19.9315 27.7201C20.0292 27.7178 20.1252 27.6938 20.2125 27.6498L23.7859 25.3319L37.7813 35.8679C36.8696 37.1304 35.4051 37.8758 33.8478 37.8698ZM38.6681 19.3264L38.6593 33.0408C38.6616 33.5736 38.5967 34.1046 38.4661 34.6212L25.1293 24.5856L37.8427 16.3412C38.4195 17.2272 38.7078 18.27 38.6681 19.3264Z" fill="black"/>
<path d="M22.7526 6.04796C19.7849 4.52375 16.1436 5.69391 14.6194 8.66156C14.1804 9.51629 13.9517 10.4633 13.9521 11.4242C13.9714 14.7549 16.6795 17.4434 20.0103 17.4385C20.502 17.4391 20.9917 17.377 21.4678 17.2541C21.644 17.2301 21.7993 17.1265 21.8893 16.9732C21.9778 16.8281 21.9972 16.651 21.9419 16.4903C21.9261 16.3503 21.8529 16.2231 21.74 16.1391C21.5843 16.0301 21.3885 15.9947 21.2044 16.0425C20.8171 16.1392 20.4181 16.1806 20.0191 16.1654C17.3813 16.1702 15.2388 14.0357 15.234 11.3979C15.2292 8.76 17.3637 6.61757 20.0016 6.61274C22.6394 6.60791 24.7818 8.74244 24.7867 11.3803C24.7946 12.1424 24.6103 12.8943 24.2511 13.5665C24.0893 13.8859 23.8227 14.1401 23.496 14.2865H23.3643C23.1799 14.2865 23.1712 13.8036 23.1712 13.8036V11.3979C23.2633 9.64492 21.9171 8.14913 20.1642 8.05683C18.4113 7.96464 16.9155 9.31084 16.8232 11.0638C16.8174 11.1751 16.8174 11.2865 16.8232 11.3977C16.7888 13.1965 18.2119 14.6863 20.0103 14.7342C20.7132 14.738 21.3946 14.4922 21.9332 14.0405V14.0844C21.939 14.4186 22.0462 14.7432 22.2405 15.0151C22.5047 15.367 22.9245 15.567 23.3643 15.5507C23.4954 15.5697 23.6284 15.5697 23.7594 15.5507C24.4402 15.3269 25.0131 14.8573 25.3662 14.2337V14.181C26.8903 11.2135 25.7202 7.57218 22.7526 6.04796ZM20.0103 13.4524L20.0191 13.4612C18.9431 13.4288 18.0971 12.5304 18.1294 11.4543C18.1299 11.4383 18.1305 11.4224 18.1314 11.4066C18.0817 10.3169 18.921 9.39129 20.0103 9.33455C21.1015 9.3959 21.9458 10.3142 21.9156 11.4066C21.9502 12.4961 21.0995 13.4096 20.0103 13.4524Z" fill="black"/>
</g>
<defs>
<clipPath id="clip0">
<rect width="40" height="40" fill="white"/>
</clipPath>
</defs>
</svg>
