<svg width="21" height="21" viewBox="0 0 21 21" fill="none" xmlns="http://www.w3.org/2000/svg">
<path d="M20.5816 3.70996H0.418318C0.187318 3.70996 0 3.89724 0 4.12828V15.1503C0 16.3301 0.959764 17.2899 2.13958 17.2899H18.8604C20.0402 17.2899 21 16.3301 21 15.1503V4.12828C21 3.89724 20.8126 3.70996 20.5816 3.70996ZM20.1633 15.1503C20.1633 15.8687 19.5789 16.4532 18.8604 16.4532H2.13958C1.42115 16.4532 0.836676 15.8687 0.836676 15.1503V5.04096L10.235 12.7348C10.3121 12.7979 10.406 12.8294 10.5 12.8294C10.5938 12.8294 10.6876 12.798 10.7646 12.7351L18.0369 6.79486C18.2158 6.64868 18.2424 6.3852 18.0963 6.20625C17.95 6.0273 17.6866 6.00072 17.5077 6.14694L10.5003 11.8707L1.55363 4.5466H20.1633V15.1503Z" fill="#2E478C"/>
<path d="M19.2741 5.24418C19.128 5.06523 18.8644 5.03865 18.6856 5.18483L18.5601 5.28732C18.3811 5.4335 18.3545 5.69699 18.5007 5.87594C18.5833 5.97716 18.7036 6.02962 18.8249 6.02962C18.918 6.02962 19.0116 5.9987 19.0892 5.93529L19.2147 5.83279C19.3937 5.68665 19.4203 5.42313 19.2741 5.24418Z" fill="#2E478C"/>
</svg>
