<svg width="50" height="50" viewBox="0 0 50 50" fill="none" xmlns="http://www.w3.org/2000/svg">
<path d="M43.2621 0H6.73778C3.01678 0 0.000183105 3.01648 0.000183105 6.7376V43.2622C0.000183105 46.9833 3.01666 49.9998 6.73778 49.9998H24.7514L24.7821 32.1325H20.1402C19.537 32.1325 19.0473 31.6448 19.045 31.0415L19.0228 25.2822C19.0204 24.6756 19.5115 24.1827 20.1181 24.1827H24.7515V18.6177C24.7515 12.1596 28.6957 8.64311 34.4568 8.64311H39.1842C39.789 8.64311 40.2795 9.13346 40.2795 9.73842V14.5947C40.2795 15.1994 39.7894 15.6897 39.1848 15.69L36.2837 15.6914C33.1506 15.6914 32.5439 17.1802 32.5439 19.3651V24.1828H39.4283C40.0843 24.1828 40.5932 24.7556 40.5159 25.4071L39.8333 31.1664C39.768 31.7175 39.3006 32.1328 38.7457 32.1328H32.5746L32.5439 50H43.2623C46.9833 50 49.9998 46.9835 49.9998 43.2625V6.7376C49.9997 3.01648 46.9832 0 43.2621 0Z" fill="#475993"/>
</svg>
