<svg width="21" height="21" viewBox="0 0 21 21" fill="none" xmlns="http://www.w3.org/2000/svg">
<path d="M9.1875 7.875C9.10048 7.875 9.01702 7.90957 8.95548 7.97111C8.89394 8.03264 8.85938 8.1161 8.85938 8.20312V11.4844C8.85938 11.5714 8.89394 11.6549 8.95548 11.7164C9.01702 11.7779 9.10048 11.8125 9.1875 11.8125C9.27452 11.8125 9.35798 11.7779 9.41952 11.7164C9.48106 11.6549 9.51562 11.5714 9.51562 11.4844V8.20312C9.51562 8.1161 9.48106 8.03264 9.41952 7.97111C9.35798 7.90957 9.27452 7.875 9.1875 7.875Z" fill="#2E478C"/>
<path d="M3.9375 2.29688H9.1875C9.27452 2.29688 9.35798 2.2623 9.41952 2.20077C9.48106 2.13923 9.51562 2.05577 9.51562 1.96875C9.51562 1.88173 9.48106 1.79827 9.41952 1.73673C9.35798 1.6752 9.27452 1.64062 9.1875 1.64062H3.9375C3.85048 1.64062 3.76702 1.6752 3.70548 1.73673C3.64395 1.79827 3.60938 1.88173 3.60938 1.96875C3.60938 2.05577 3.64395 2.13923 3.70548 2.20077C3.76702 2.2623 3.85048 2.29688 3.9375 2.29688Z" fill="#2E478C"/>
<path d="M3.9375 3.28125H9.1875C9.27452 3.28125 9.35798 3.24668 9.41952 3.18514C9.48106 3.12361 9.51562 3.04015 9.51562 2.95312C9.51562 2.8661 9.48106 2.78264 9.41952 2.72111C9.35798 2.65957 9.27452 2.625 9.1875 2.625H3.9375C3.85048 2.625 3.76702 2.65957 3.70548 2.72111C3.64395 2.78264 3.60938 2.8661 3.60938 2.95312C3.60938 3.04015 3.64395 3.12361 3.70548 3.18514C3.76702 3.24668 3.85048 3.28125 3.9375 3.28125Z" fill="#2E478C"/>
<path d="M3.9375 4.26562H9.1875C9.27452 4.26562 9.35798 4.23105 9.41952 4.16952C9.48106 4.10798 9.51562 4.02452 9.51562 3.9375C9.51562 3.85048 9.48106 3.76702 9.41952 3.70548C9.35798 3.64395 9.27452 3.60938 9.1875 3.60938H3.9375C3.85048 3.60938 3.76702 3.64395 3.70548 3.70548C3.64395 3.76702 3.60938 3.85048 3.60938 3.9375C3.60938 4.02452 3.64395 4.10798 3.70548 4.16952C3.76702 4.23105 3.85048 4.26562 3.9375 4.26562Z" fill="#2E478C"/>
<path d="M3.9375 16.4062H9.1875C9.27452 16.4062 9.35798 16.3717 9.41952 16.3101C9.48106 16.2486 9.51562 16.1651 9.51562 16.0781C9.51562 15.9911 9.48106 15.9076 9.41952 15.8461C9.35798 15.7846 9.27452 15.75 9.1875 15.75H3.9375C3.85048 15.75 3.76702 15.7846 3.70548 15.8461C3.64395 15.9076 3.60938 15.9911 3.60938 16.0781C3.60938 16.1651 3.64395 16.2486 3.70548 16.3101C3.76702 16.3717 3.85048 16.4062 3.9375 16.4062Z" fill="#2E478C"/>
<path d="M3.9375 17.3906H9.1875C9.27452 17.3906 9.35798 17.3561 9.41952 17.2945C9.48106 17.233 9.51562 17.1495 9.51562 17.0625C9.51562 16.9755 9.48106 16.892 9.41952 16.8305C9.35798 16.7689 9.27452 16.7344 9.1875 16.7344H3.9375C3.85048 16.7344 3.76702 16.7689 3.70548 16.8305C3.64395 16.892 3.60938 16.9755 3.60938 17.0625C3.60938 17.1495 3.64395 17.233 3.70548 17.2945C3.76702 17.3561 3.85048 17.3906 3.9375 17.3906Z" fill="#2E478C"/>
<path d="M3.9375 18.375H9.1875C9.27452 18.375 9.35798 18.3404 9.41952 18.2789C9.48106 18.2174 9.51562 18.1339 9.51562 18.0469C9.51562 17.9599 9.48106 17.8764 9.41952 17.8149C9.35798 17.7533 9.27452 17.7188 9.1875 17.7188H3.9375C3.85048 17.7188 3.76702 17.7533 3.70548 17.8149C3.64395 17.8764 3.60938 17.9599 3.60938 18.0469C3.60938 18.1339 3.64395 18.2174 3.70548 18.2789C3.76702 18.3404 3.85048 18.375 3.9375 18.375Z" fill="#2E478C"/>
<path d="M18.375 0.328125H2.625C2.53798 0.328125 2.45452 0.362695 2.39298 0.424231C2.33145 0.485766 2.29688 0.569226 2.29688 0.65625V20.3438C2.29688 20.4308 2.33145 20.5142 2.39298 20.5758C2.45452 20.6373 2.53798 20.6719 2.625 20.6719H3.60938C3.6964 20.6719 3.77986 20.6373 3.84139 20.5758C3.90293 20.5142 3.9375 20.4308 3.9375 20.3438V19.6875H9.1875V20.3438C9.1875 20.4308 9.22207 20.5142 9.28361 20.5758C9.34514 20.6373 9.4286 20.6719 9.51562 20.6719H11.4844C11.5714 20.6719 11.6549 20.6373 11.7164 20.5758C11.7779 20.5142 11.8125 20.4308 11.8125 20.3438V19.6875H17.0625V20.3438C17.0625 20.4308 17.0971 20.5142 17.1586 20.5758C17.2201 20.6373 17.3036 20.6719 17.3906 20.6719H18.375C18.462 20.6719 18.5455 20.6373 18.607 20.5758C18.6686 20.5142 18.7031 20.4308 18.7031 20.3438V0.65625C18.7031 0.569226 18.6686 0.485766 18.607 0.424231C18.5455 0.362695 18.462 0.328125 18.375 0.328125ZM18.0469 19.0312H10.8281V0.984375H18.0469V19.0312ZM2.95312 0.984375H10.1719V19.0312H2.95312V0.984375ZM3.28125 20.0156H2.95312V19.6875H3.28125V20.0156ZM9.84375 19.6875H10.1719V20.0156H9.84375V19.6875ZM11.1562 20.0156H10.8281V19.6875H11.1562V20.0156ZM18.0469 20.0156H17.7188V19.6875H18.0469V20.0156Z" fill="#2E478C"/>
<path d="M17.0625 7.875C16.9755 7.875 16.892 7.90957 16.8305 7.97111C16.7689 8.03264 16.7344 8.1161 16.7344 8.20312V11.4844C16.7344 11.5714 16.7689 11.6549 16.8305 11.7164C16.892 11.7779 16.9755 11.8125 17.0625 11.8125C17.1495 11.8125 17.233 11.7779 17.2945 11.7164C17.3561 11.6549 17.3906 11.5714 17.3906 11.4844V8.20312C17.3906 8.1161 17.3561 8.03264 17.2945 7.97111C17.233 7.90957 17.1495 7.875 17.0625 7.875Z" fill="#2E478C"/>
<path d="M11.8125 2.29688H17.0625C17.1495 2.29688 17.233 2.2623 17.2945 2.20077C17.3561 2.13923 17.3906 2.05577 17.3906 1.96875C17.3906 1.88173 17.3561 1.79827 17.2945 1.73673C17.233 1.6752 17.1495 1.64062 17.0625 1.64062H11.8125C11.7255 1.64062 11.642 1.6752 11.5805 1.73673C11.5189 1.79827 11.4844 1.88173 11.4844 1.96875C11.4844 2.05577 11.5189 2.13923 11.5805 2.20077C11.642 2.2623 11.7255 2.29688 11.8125 2.29688Z" fill="#2E478C"/>
<path d="M11.8125 3.28125H17.0625C17.1495 3.28125 17.233 3.24668 17.2945 3.18514C17.3561 3.12361 17.3906 3.04015 17.3906 2.95312C17.3906 2.8661 17.3561 2.78264 17.2945 2.72111C17.233 2.65957 17.1495 2.625 17.0625 2.625H11.8125C11.7255 2.625 11.642 2.65957 11.5805 2.72111C11.5189 2.78264 11.4844 2.8661 11.4844 2.95312C11.4844 3.04015 11.5189 3.12361 11.5805 3.18514C11.642 3.24668 11.7255 3.28125 11.8125 3.28125Z" fill="#2E478C"/>
<path d="M11.8125 4.26562H17.0625C17.1495 4.26562 17.233 4.23105 17.2945 4.16952C17.3561 4.10798 17.3906 4.02452 17.3906 3.9375C17.3906 3.85048 17.3561 3.76702 17.2945 3.70548C17.233 3.64395 17.1495 3.60938 17.0625 3.60938H11.8125C11.7255 3.60938 11.642 3.64395 11.5805 3.70548C11.5189 3.76702 11.4844 3.85048 11.4844 3.9375C11.4844 4.02452 11.5189 4.10798 11.5805 4.16952C11.642 4.23105 11.7255 4.26562 11.8125 4.26562Z" fill="#2E478C"/>
<path d="M11.8125 16.4062H17.0625C17.1495 16.4062 17.233 16.3717 17.2945 16.3101C17.3561 16.2486 17.3906 16.1651 17.3906 16.0781C17.3906 15.9911 17.3561 15.9076 17.2945 15.8461C17.233 15.7846 17.1495 15.75 17.0625 15.75H11.8125C11.7255 15.75 11.642 15.7846 11.5805 15.8461C11.5189 15.9076 11.4844 15.9911 11.4844 16.0781C11.4844 16.1651 11.5189 16.2486 11.5805 16.3101C11.642 16.3717 11.7255 16.4062 11.8125 16.4062Z" fill="#2E478C"/>
<path d="M11.8125 17.3906H17.0625C17.1495 17.3906 17.233 17.3561 17.2945 17.2945C17.3561 17.233 17.3906 17.1495 17.3906 17.0625C17.3906 16.9755 17.3561 16.892 17.2945 16.8305C17.233 16.7689 17.1495 16.7344 17.0625 16.7344H11.8125C11.7255 16.7344 11.642 16.7689 11.5805 16.8305C11.5189 16.892 11.4844 16.9755 11.4844 17.0625C11.4844 17.1495 11.5189 17.233 11.5805 17.2945C11.642 17.3561 11.7255 17.3906 11.8125 17.3906Z" fill="#2E478C"/>
<path d="M11.8125 18.375H17.0625C17.1495 18.375 17.233 18.3404 17.2945 18.2789C17.3561 18.2174 17.3906 18.1339 17.3906 18.0469C17.3906 17.9599 17.3561 17.8764 17.2945 17.8149C17.233 17.7533 17.1495 17.7188 17.0625 17.7188H11.8125C11.7255 17.7188 11.642 17.7533 11.5805 17.8149C11.5189 17.8764 11.4844 17.9599 11.4844 18.0469C11.4844 18.1339 11.5189 18.2174 11.5805 18.2789C11.642 18.3404 11.7255 18.375 11.8125 18.375Z" fill="#2E478C"/>
<path d="M9.1875 6.5625C9.10048 6.5625 9.01702 6.59707 8.95548 6.65861C8.89394 6.72014 8.85938 6.8036 8.85938 6.89062V7.21875C8.85938 7.30577 8.89394 7.38923 8.95548 7.45077C9.01702 7.51231 9.10048 7.54688 9.1875 7.54688C9.27452 7.54688 9.35798 7.51231 9.41952 7.45077C9.48106 7.38923 9.51562 7.30577 9.51562 7.21875V6.89062C9.51562 6.8036 9.48106 6.72014 9.41952 6.65861C9.35798 6.59707 9.27452 6.5625 9.1875 6.5625Z" fill="#2E478C"/>
</svg>
