<svg width="50" height="50" viewBox="0 0 50 50" fill="none" xmlns="http://www.w3.org/2000/svg">
<path d="M35.1047 0H14.8953C6.68198 0 0 6.68198 0 14.8953V35.1047C0 43.318 6.68198 50 14.8953 50H35.1047C43.318 50 50 43.318 50 35.1047V14.8953C49.9999 6.68198 43.3179 0 35.1047 0ZM44.97 35.1047C44.97 40.5531 40.5531 44.97 35.1047 44.97H14.8953C9.44688 44.97 5.03 40.5531 5.03 35.1047V14.8953C5.03 9.44679 9.44688 5.03 14.8953 5.03H35.1047C40.5531 5.03 44.97 9.44679 44.97 14.8953V35.1047Z" fill="url(#paint0_linear)"/>
<path d="M25 12.0681C17.8694 12.0681 12.0682 17.8693 12.0682 24.9998C12.0682 32.1303 17.8694 37.9316 25 37.9316C32.1306 37.9316 37.9318 32.1304 37.9318 24.9998C37.9318 17.8692 32.1306 12.0681 25 12.0681ZM25 32.9017C20.6359 32.9017 17.0982 29.364 17.0982 24.9999C17.0982 20.6358 20.636 17.0981 25 17.0981C29.3641 17.0981 32.9018 20.6358 32.9018 24.9999C32.9018 29.3639 29.364 32.9017 25 32.9017Z" fill="url(#paint1_linear)"/>
<path d="M37.9568 15.2641C39.6682 15.2641 41.0555 13.8767 41.0555 12.1654C41.0555 10.454 39.6682 9.06665 37.9568 9.06665C36.2454 9.06665 34.8581 10.454 34.8581 12.1654C34.8581 13.8767 36.2454 15.2641 37.9568 15.2641Z" fill="url(#paint2_linear)"/>
<defs>
<linearGradient id="paint0_linear" x1="25" y1="49.8545" x2="25" y2="0.388359" gradientUnits="userSpaceOnUse">
<stop stop-color="#E09B3D"/>
<stop offset="0.3" stop-color="#C74C4D"/>
<stop offset="0.6" stop-color="#C21975"/>
<stop offset="1" stop-color="#7024C4"/>
</linearGradient>
<linearGradient id="paint1_linear" x1="25" y1="49.8543" x2="25" y2="0.388258" gradientUnits="userSpaceOnUse">
<stop stop-color="#E09B3D"/>
<stop offset="0.3" stop-color="#C74C4D"/>
<stop offset="0.6" stop-color="#C21975"/>
<stop offset="1" stop-color="#7024C4"/>
</linearGradient>
<linearGradient id="paint2_linear" x1="37.9568" y1="49.8545" x2="37.9568" y2="0.388424" gradientUnits="userSpaceOnUse">
<stop stop-color="#E09B3D"/>
<stop offset="0.3" stop-color="#C74C4D"/>
<stop offset="0.6" stop-color="#C21975"/>
<stop offset="1" stop-color="#7024C4"/>
</linearGradient>
</defs>
</svg>
