<svg width="21" height="21" viewBox="0 0 21 21" fill="none" xmlns="http://www.w3.org/2000/svg">
<path d="M11.5 0C7.42912 0 4.11719 3.31193 4.11719 7.38281C4.11719 8.75823 4.49818 10.1005 5.21924 11.265L11.0798 20.7092C11.192 20.8901 11.3898 21 11.6025 21C11.6041 21 11.6057 21 11.6074 21C11.8219 20.9983 12.0201 20.885 12.1303 20.7009L17.8415 11.1653C18.5227 10.0254 18.8828 8.71742 18.8828 7.38281C18.8828 3.31193 15.5709 0 11.5 0ZM16.7855 10.5336L11.5932 19.2029L6.26505 10.6167C5.66487 9.64745 5.33945 8.5292 5.33945 7.38281C5.33945 3.99041 8.1076 1.22227 11.5 1.22227C14.8924 1.22227 17.6564 3.99041 17.6564 7.38281C17.6564 8.4952 17.3525 9.58486 16.7855 10.5336Z" fill="#2E478C"/>
<path d="M11.5 3.69141C9.46456 3.69141 7.80859 5.34737 7.80859 7.38281C7.80859 9.40525 9.43761 11.0742 11.5 11.0742C13.5878 11.0742 15.1914 9.38302 15.1914 7.38281C15.1914 5.34737 13.5354 3.69141 11.5 3.69141ZM11.5 9.85195C10.1359 9.85195 9.03086 8.74318 9.03086 7.38281C9.03086 6.02585 10.143 4.91367 11.5 4.91367C12.857 4.91367 13.965 6.02585 13.965 7.38281C13.965 8.72333 12.8857 9.85195 11.5 9.85195Z" fill="#2E478C"/>
</svg>
