<svg width="21" height="21" viewBox="0 0 21 21" fill="none" xmlns="http://www.w3.org/2000/svg">
<path d="M10.5 0C4.71031 0 0 4.71031 0 10.5C0 16.2896 4.71031 20.9999 10.5 20.9999C16.2896 20.9999 20.9999 16.2896 20.9999 10.5C20.9999 4.71031 16.2897 0 10.5 0ZM10.5 19.6181C5.47221 19.6181 1.38187 15.5277 1.38187 10.5C1.38187 5.47221 5.47221 1.38187 10.5 1.38187C15.5277 1.38187 19.618 5.47221 19.618 10.5C19.618 15.5277 15.5277 19.6181 10.5 19.6181Z" fill="#2E478C"/>
<path d="M11.1909 9.87988V5.95695C11.5819 6.10214 11.923 6.36855 12.1602 6.72882C12.3701 7.04754 12.7986 7.13578 13.1172 6.92593C13.4359 6.71609 13.5242 6.28761 13.3142 5.96889C12.8179 5.21518 12.053 4.70349 11.1909 4.52316V3.42555C11.1909 3.04396 10.8816 2.73462 10.5 2.73462C10.1184 2.73462 9.80903 3.04396 9.80903 3.42555V4.52108C8.27979 4.8399 7.12741 6.19798 7.12741 7.8204C7.12741 9.44281 8.27989 10.8011 9.80903 11.1199V15.0428C9.41806 14.8977 9.07693 14.6312 8.83975 14.271C8.6298 13.9523 8.20132 13.8639 7.8827 14.0739C7.56398 14.2837 7.47574 14.7122 7.68569 15.0309C8.18207 15.7846 8.94694 16.2963 9.80903 16.4766V17.5741C9.80903 17.9557 10.1184 18.2651 10.5 18.2651C10.8816 18.2651 11.1909 17.9557 11.1909 17.5741V16.4787C12.7201 16.1599 13.8725 14.8018 13.8725 13.1794C13.8725 11.557 12.7201 10.1987 11.1909 9.87988ZM8.50928 7.8204C8.50928 6.9663 9.05157 6.23845 9.80903 5.95744V9.68336C9.05157 9.40235 8.50928 8.67449 8.50928 7.8204ZM11.1909 15.0423V11.3163C11.9484 11.5973 12.4906 12.3252 12.4906 13.1793C12.4906 14.0334 11.9485 14.7612 11.1909 15.0423Z" fill="#2E478C"/>
</svg>
