<svg width="54" height="54" viewBox="0 0 54 54" fill="none" xmlns="http://www.w3.org/2000/svg">
<rect width="54" height="54" fill="#E5E5E5"/>
<g clip-path="url(#clip0)">
<rect x="-738" y="-2737" width="1260" height="3253" fill="white"/>
<rect x="-740" y="-211" width="1262" height="688" fill="#F0EFEE"/>
<g clip-path="url(#clip1)">
<path d="M31.8397 15.6501L31.0678 17.8632C33.2214 18.6144 34.9379 20.1657 35.9011 22.2314C36.8644 24.297 36.9494 26.6092 36.1406 28.7417L38.332 29.5729C39.3671 26.8438 39.2581 23.8847 38.0253 21.2409C36.7924 18.597 34.5957 16.6114 31.8397 15.6501Z" fill="black"/>
<path d="M30.3784 20.0608L29.6065 22.2738C30.5481 22.6022 31.2983 23.2798 31.7189 24.1819C32.1396 25.0839 32.1764 26.0941 31.8228 27.0266L34.0142 27.8578C34.5941 26.3288 34.5334 24.6716 33.8431 23.1914C33.1529 21.7111 31.9224 20.5994 30.3784 20.0608Z" fill="black"/>
<path d="M15.1954 9.82017C12.8031 11.053 11.5379 14.121 11.6331 18.4592C11.7215 22.4887 12.964 27.2679 15.1316 31.9164C17.3252 36.6206 20.222 40.6743 23.2884 43.3306C26.6032 46.2021 29.796 47.1459 32.2786 45.9882L38.3294 43.1667L32.7071 31.1097L27.8489 33.3751C26.5898 31.6457 25.46 29.7141 24.4836 27.6203C23.488 25.4853 22.7247 23.3389 22.2093 21.2272L27.047 18.9714L21.4247 6.91438L15.237 9.79974L15.1954 9.82017ZM20.291 10.0291L23.9322 17.8378L19.5174 19.8964L19.71 20.8074C20.2546 23.3833 21.1459 26.0088 22.3593 28.6109C23.5521 31.1689 24.9646 33.506 26.5575 35.5574L27.131 36.2959L31.5734 34.2244L35.2146 42.0331L31.288 43.8641C29.7163 44.597 27.3599 43.7569 24.8229 41.5592C22.0005 39.114 19.3131 35.3377 17.2558 30.9259C15.2224 26.5653 14.0578 22.1197 13.9762 18.4077C13.9032 15.0766 14.7318 12.7115 16.2504 11.9132L20.291 10.0291Z" fill="black"/>
</g>
</g>
<defs>
<clipPath id="clip0">
<rect x="-738" y="-2737" width="1260" height="3253" fill="white"/>
</clipPath>
<clipPath id="clip1">
<rect y="16.9048" width="40" height="40" transform="rotate(-25 0 16.9048)" fill="white"/>
</clipPath>
</defs>
</svg>
