<svg width="50" height="50" viewBox="0 0 50 50" fill="none" xmlns="http://www.w3.org/2000/svg">
<path d="M49.2048 6.00352C48.0939 6.58997 46.9406 7.05263 45.7573 7.38758C47.0612 5.91253 48.0416 4.06755 48.5946 2.00823C48.7525 1.42033 48.2161 0.911953 47.7702 1.22673C46.124 2.38918 44.3508 3.26124 42.4997 3.81896C42.3923 3.85132 42.2815 3.86772 42.1703 3.86772C41.8331 3.86772 41.5053 3.71867 41.2475 3.44816C39.278 1.38172 36.7449 0.243652 34.1151 0.243652C32.9771 0.243652 31.8282 0.45481 30.7001 0.871319C27.2048 2.16192 24.5079 5.59427 23.6618 9.82902C23.3444 11.4174 23.2584 13.0073 23.4062 14.5543C23.4231 14.7321 23.3525 14.8562 23.309 14.9144C23.2326 15.0164 23.1242 15.0749 23.0117 15.0749C22.9991 15.0749 22.9862 15.0741 22.9734 15.0727C15.3224 14.2265 8.42315 9.83831 3.54637 2.71673C3.29768 2.35348 2.82079 2.39804 2.62258 2.80279C1.66758 4.75327 1.16289 6.98414 1.16289 9.25418C1.16289 12.7331 2.33695 16.0116 4.37629 18.4017C3.51869 18.1596 2.68865 17.7784 1.9176 17.2686C1.54458 17.0219 1.08561 17.339 1.08037 17.8469C1.02697 23.0151 3.56868 27.6138 7.37624 29.6846C7.29956 29.6868 7.22288 29.6878 7.14608 29.6878C6.54253 29.6878 5.93143 29.6184 5.32995 29.4816C4.90987 29.3861 4.55695 29.8605 4.68739 30.3454C5.92326 34.9387 9.24539 38.3245 13.2209 39.0932C9.92147 41.73 6.07917 43.1209 2.0801 43.1209L0.833387 43.12C0.449267 43.12 0.124392 43.4181 0.0265024 43.861C-0.0699239 44.2973 0.107691 44.7575 0.435248 44.9843C4.94156 48.1064 10.0817 49.7564 15.3021 49.7564C19.8717 49.7564 24.1461 48.6768 28.0068 46.5479C31.5461 44.5961 34.6737 41.806 37.3026 38.2553C39.7517 34.9476 41.6668 31.1292 42.9946 26.9063C44.2603 22.881 44.9293 18.5859 44.9293 14.4852V14.2899C44.9292 13.6314 45.1794 13.0119 45.6158 12.5902C47.2719 10.9894 48.714 9.10514 49.9019 6.98965C50.2156 6.43106 49.7209 5.73098 49.2048 6.00352Z" fill="#76A9EA"/>
</svg>
