<svg width="50" height="50" viewBox="0 0 50 50" fill="none" xmlns="http://www.w3.org/2000/svg">
<g clip-path="url(#clip0)">
<path d="M23.7877 0.0289156C10.5827 0.65766 0.162159 11.6548 0.202218 24.8747C0.214415 28.9012 1.18647 32.7016 2.90123 36.0596L0.268464 48.8393C0.126046 49.5306 0.749529 50.1359 1.43627 49.9733L13.9589 47.0064C17.1762 48.609 20.7898 49.5347 24.6143 49.593C38.111 49.7992 49.3649 39.0825 49.7856 25.5908C50.2365 11.1286 38.3004 -0.662249 23.7877 0.0289156ZM38.7298 38.5278C35.0625 42.1952 30.1864 44.2149 25.0001 44.2149C21.9633 44.2149 19.0558 43.5335 16.3582 42.1898L14.6143 41.3211L6.93665 43.1401L8.55275 35.2949L7.69358 33.6124C6.29319 30.8699 5.58314 27.9042 5.58314 24.7979C5.58314 19.6115 7.60282 14.7355 11.2702 11.0681C14.9048 7.43346 19.8603 5.3809 25.0004 5.3809C30.1868 5.38101 35.0626 7.4007 38.73 11.0679C42.3973 14.7353 44.417 19.6112 44.4171 24.7976C44.417 29.9378 42.3644 34.8934 38.7298 38.5278Z" fill="#7AD06D"/>
<path d="M37.035 30.1755L32.2316 28.7963C31.6001 28.615 30.9201 28.7941 30.4599 29.263L29.2853 30.4597C28.79 30.9643 28.0385 31.1265 27.3829 30.8613C25.1107 29.9417 20.3309 25.6919 19.1103 23.5661C18.7581 22.9529 18.8163 22.1863 19.2487 21.6268L20.2742 20.3001C20.676 19.7803 20.7608 19.0822 20.4951 18.4813L18.4742 13.9106C17.9902 12.8159 16.5912 12.4972 15.6773 13.2702C14.3367 14.404 12.746 16.127 12.5527 18.0359C12.2118 21.4013 13.6551 25.6437 19.113 30.7377C25.4184 36.6228 30.4677 37.4003 33.7553 36.6039C35.62 36.1522 37.1102 34.3416 38.0507 32.8591C38.6918 31.8483 38.1855 30.5059 37.035 30.1755Z" fill="#7AD06D"/>
</g>
<defs>
<clipPath id="clip0">
<rect width="50" height="50" fill="white"/>
</clipPath>
</defs>
</svg>
